# xmcd CD database file
#
# Track frame offsets:
#	150
#	12046
#	26523
#	45006
#	67325
#	82682
#	101573
#	123664
#	137199
#	157214
#	171530
#	203307
#	225777
#	244557
#
# Disc length: 3546 seconds
#
# Revision: 0
# Processed by: cddbd v1.5.2PL0 Copyright (c) Steve Scherf et al.
# Submitted via: CDex 1.74
#
DISCID=a70dd80e
DTITLE=Preservation Hall Jazz Band - New Orleans Preservation
DYEAR=2009
DGENRE=Jazz
TTITLE0=Short Dressed Gal
TTITLE1=My Sweet Substitute
TTITLE2=El Manicero
TTITLE3=Them Ol' Sugar Blues
TTITLE4=Chokimo Feel No Hey
TTITLE5=Halloween
TTITLE6=The Tailgate Ramble
TTITLE7=Blue Yodel #9
TTITLE8=Wish I Could Shimmy Like My Sister Kate
TTITLE9=I Don't Want To Set The World On Fire
TTITLE10=The Tiger Rag
TTITLE11=Westlawn Dirge
TTITLE12=Oh, What A Friend
TTITLE13=Ice Cream
EXTD=YEAR: 2009
EXTT0=
EXTT1=
EXTT2=
EXTT3=
EXTT4=
EXTT5=
EXTT6=
EXTT7=
EXTT8=
EXTT9=
EXTT10=
EXTT11=
EXTT12=
EXTT13=
PLAYORDER=
